<svg width="80" height="80" viewBox="0 0 80 80" fill="none" xmlns="http://www.w3.org/2000/svg">
<path d="M39.9456 2C49.808 10.7255 62.68 15.2686 75.8345 14.6667C77.7496 21.1816 78.3356 28.0151 77.5577 34.761C76.7797 41.5069 74.6536 48.0276 71.3057 53.9356C67.9579 59.8436 63.4566 65.0183 58.0693 69.1523C52.682 73.2862 46.5187 76.2951 39.9456 78C33.3725 76.2951 27.2092 73.2862 21.8219 69.1523C16.4346 65.0183 11.9333 59.8436 8.58542 53.9356C5.23756 48.0276 3.11147 41.5069 2.33349 34.761C1.55551 28.0151 2.14152 21.1816 4.05669 14.6667C17.2111 15.2686 30.0832 10.7255 39.9456 2Z" stroke="#CAF23A" stroke-width="4" stroke-linecap="round" stroke-linejoin="round"/>
<path d="M39.9459 39.9991C38.8261 39.9991 37.7521 39.5543 36.9603 38.7625C36.1685 37.9707 35.7236 36.8967 35.7236 35.7769C35.7236 34.6571 36.1685 33.5832 36.9603 32.7913C37.7521 31.9995 38.8261 31.5547 39.9459 31.5547C41.0657 31.5547 42.1396 31.9995 42.9314 32.7913C43.7232 33.5832 44.1681 34.6571 44.1681 35.7769C44.1681 36.8967 43.7232 37.9707 42.9314 38.7625C42.1396 39.5543 41.0657 39.9991 39.9459 39.9991ZM39.9459 39.9991V50.5547" stroke="#CAF23A" stroke-width="4" stroke-linecap="round" stroke-linejoin="round"/>
</svg>
