<svg xmlns="http://www.w3.org/2000/svg" width="180" height="180" viewBox="0 0 180 180" fill="none">
<path d="M90 2C112.872 22.2065 142.724 32.7273 173.23 31.3333C177.672 46.4206 179.031 62.2455 177.226 77.8675C175.422 93.4896 170.491 108.59 162.727 122.272C154.963 135.953 144.524 147.937 132.031 157.51C119.537 167.084 105.244 174.052 90 178C74.7563 174.052 60.4629 167.084 47.9693 157.51C35.4756 147.937 25.0366 135.953 17.2726 122.272C9.50853 108.59 4.57791 93.4896 2.77369 77.8675C0.969474 62.2455 2.32848 46.4206 6.76995 31.3333C37.2765 32.7273 67.1281 22.2065 90 2Z" stroke="#CAF23A" stroke-width="2" stroke-linecap="round" stroke-linejoin="round"/>
<path d="M90.0008 90.0009C87.4038 90.0009 84.9132 88.9707 83.0769 87.137C81.2406 85.3033 80.209 82.8163 80.209 80.2231C80.209 77.6299 81.2406 75.1428 83.0769 73.3092C84.9132 71.4755 87.4038 70.4453 90.0008 70.4453C92.5977 70.4453 95.0883 71.4755 96.9246 73.3092C98.7609 75.1428 99.7925 77.6299 99.7925 80.2231C99.7925 82.8163 98.7609 85.3033 96.9246 87.137C95.0883 88.9707 92.5977 90.0009 90.0008 90.0009ZM90.0008 90.0009V114.445" stroke="#CAF23A" stroke-width="2" stroke-linecap="round" stroke-linejoin="round"/>
</svg>
