<svg width="102" height="102" viewBox="0 0 102 102" fill="none" xmlns="http://www.w3.org/2000/svg">
<path d="M80.75 12.75H21.25C16.5556 12.75 12.75 16.5556 12.75 21.25V80.75C12.75 85.4444 16.5556 89.25 21.25 89.25H80.75C85.4444 89.25 89.25 85.4444 89.25 80.75V21.25C89.25 16.5556 85.4444 12.75 80.75 12.75Z" stroke="black" stroke-width="2" stroke-linecap="round" stroke-linejoin="round"/>
<path d="M36.125 42.5C39.6458 42.5 42.5 39.6458 42.5 36.125C42.5 32.6042 39.6458 29.75 36.125 29.75C32.6042 29.75 29.75 32.6042 29.75 36.125C29.75 39.6458 32.6042 42.5 36.125 42.5Z" stroke="black" stroke-width="2" stroke-linecap="round" stroke-linejoin="round"/>
<path d="M89.25 63.75L68 42.5L21.25 89.25" stroke="black" stroke-width="2" stroke-linecap="round" stroke-linejoin="round"/>
</svg>
