<svg width="80" height="80" viewBox="0 0 80 80" fill="none" xmlns="http://www.w3.org/2000/svg">
<path d="M5 11C6.65685 11 8 9.65685 8 8C8 6.34315 6.65685 5 5 5C3.34315 5 2 6.34315 2 8C2 9.65685 3.34315 11 5 11Z" fill="#CAF23A"/>
<path d="M19 11C20.6569 11 22 9.65685 22 8C22 6.34315 20.6569 5 19 5C17.3431 5 16 6.34315 16 8C16 9.65685 17.3431 11 19 11Z" fill="#CAF23A"/>
<path d="M19 25C20.6569 25 22 23.6569 22 22C22 20.3431 20.6569 19 19 19C17.3431 19 16 20.3431 16 22C16 23.6569 17.3431 25 19 25Z" fill="#CAF23A"/>
<path d="M33 11C34.6569 11 36 9.65685 36 8C36 6.34315 34.6569 5 33 5C31.3431 5 30 6.34315 30 8C30 9.65685 31.3431 11 33 11Z" fill="#CAF23A"/>
<path d="M33 25C34.6569 25 36 23.6569 36 22C36 20.3431 34.6569 19 33 19C31.3431 19 30 20.3431 30 22C30 23.6569 31.3431 25 33 25Z" fill="#CAF23A"/>
<path d="M33 39C34.6569 39 36 37.6569 36 36C36 34.3431 34.6569 33 33 33C31.3431 33 30 34.3431 30 36C30 37.6569 31.3431 39 33 39Z" fill="#CAF23A"/>
<path d="M47 11C48.6569 11 50 9.65685 50 8C50 6.34315 48.6569 5 47 5C45.3431 5 44 6.34315 44 8C44 9.65685 45.3431 11 47 11Z" fill="#CAF23A"/>
<path d="M47 25C48.6569 25 50 23.6569 50 22C50 20.3431 48.6569 19 47 19C45.3431 19 44 20.3431 44 22C44 23.6569 45.3431 25 47 25Z" fill="#CAF23A"/>
<path d="M47 39C48.6569 39 50 37.6569 50 36C50 34.3431 48.6569 33 47 33C45.3431 33 44 34.3431 44 36C44 37.6569 45.3431 39 47 39Z" fill="#CAF23A"/>
<path d="M47 53C48.6569 53 50 51.6569 50 50C50 48.3431 48.6569 47 47 47C45.3431 47 44 48.3431 44 50C44 51.6569 45.3431 53 47 53Z" fill="#CAF23A"/>
<path d="M61 11C62.6569 11 64 9.65685 64 8C64 6.34315 62.6569 5 61 5C59.3431 5 58 6.34315 58 8C58 9.65685 59.3431 11 61 11Z" fill="#CAF23A"/>
<path d="M61 25C62.6569 25 64 23.6569 64 22C64 20.3431 62.6569 19 61 19C59.3431 19 58 20.3431 58 22C58 23.6569 59.3431 25 61 25Z" fill="#CAF23A"/>
<path d="M61 39C62.6569 39 64 37.6569 64 36C64 34.3431 62.6569 33 61 33C59.3431 33 58 34.3431 58 36C58 37.6569 59.3431 39 61 39Z" fill="#CAF23A"/>
<path d="M61 53C62.6569 53 64 51.6569 64 50C64 48.3431 62.6569 47 61 47C59.3431 47 58 48.3431 58 50C58 51.6569 59.3431 53 61 53Z" fill="#CAF23A"/>
<path d="M61 67C62.6569 67 64 65.6569 64 64C64 62.3431 62.6569 61 61 61C59.3431 61 58 62.3431 58 64C58 65.6569 59.3431 67 61 67Z" fill="#CAF23A"/>
<path d="M75 11C76.6569 11 78 9.65685 78 8C78 6.34315 76.6569 5 75 5C73.3431 5 72 6.34315 72 8C72 9.65685 73.3431 11 75 11Z" fill="#CAF23A"/>
<path d="M75 27C76.6569 27 78 25.6569 78 24C78 22.3431 76.6569 21 75 21C73.3431 21 72 22.3431 72 24C72 25.6569 73.3431 27 75 27Z" fill="#CAF23A"/>
<path d="M75 43C76.6569 43 78 41.6569 78 40C78 38.3431 76.6569 37 75 37C73.3431 37 72 38.3431 72 40C72 41.6569 73.3431 43 75 43Z" fill="#CAF23A"/>
<path d="M75 59C76.6569 59 78 57.6569 78 56C78 54.3431 76.6569 53 75 53C73.3431 53 72 54.3431 72 56C72 57.6569 73.3431 59 75 59Z" fill="#CAF23A"/>
<path d="M75 75C76.6569 75 78 73.6569 78 72C78 70.3431 76.6569 69 75 69C73.3431 69 72 70.3431 72 72C72 73.6569 73.3431 75 75 75Z" fill="#CAF23A"/>
</svg>
