<svg width="16" height="16" viewBox="0 0 16 16" fill="none" xmlns="http://www.w3.org/2000/svg">
<path d="M0.61223 0.318538C0.78486 0.142614 1.06475 0.142614 1.23738 0.318538L15.6873 15.0441C15.86 15.2201 15.86 15.5053 15.6873 15.6812C15.5147 15.8571 15.2348 15.8571 15.0622 15.6812L0.61223 0.955615C0.439599 0.779691 0.439599 0.494462 0.61223 0.318538Z" fill="#101010"/>
<path d="M0.312575 15.6818C0.139945 15.5059 0.139945 15.2207 0.312575 15.0447L14.7625 0.319134C14.9352 0.143209 15.215 0.14321 15.3877 0.319133C15.5603 0.495057 15.5603 0.780286 15.3877 0.95621L0.937726 15.6818C0.765095 15.8577 0.485206 15.8577 0.312575 15.6818Z" fill="#101010"/>
</svg>
