<svg width="16" height="16" viewBox="0 0 16 16" fill="none" xmlns="http://www.w3.org/2000/svg">
<path d="M0.61223 0.318538C0.78486 0.142614 1.06475 0.142614 1.23738 0.318538L15.6873 15.0441C15.86 15.2201 15.86 15.5053 15.6873 15.6812C15.5147 15.8571 15.2348 15.8571 15.0622 15.6812L0.61223 0.955615C0.439599 0.779691 0.439599 0.494462 0.61223 0.318538Z" fill="white"/>
<path d="M0.312575 15.6779C0.139945 15.502 0.139945 15.2168 0.312575 15.0408L14.7625 0.315228C14.9352 0.139303 15.215 0.139303 15.3877 0.315227C15.5603 0.491151 15.5603 0.77638 15.3877 0.952304L0.937726 15.6779C0.765095 15.8538 0.485206 15.8538 0.312575 15.6779Z" fill="white"/>
</svg>
