<svg width="18" height="18" viewBox="0 0 18 18" fill="none" xmlns="http://www.w3.org/2000/svg">
<path d="M10.5718 15.0667C10.0536 15.1706 9.52738 15.2226 9 15.2222C5.24604 15.2222 2.06885 12.6062 1 9C1.28777 8.02942 1.731 7.11863 2.31028 6.30756M10.7772 10.8844L7.22111 7.11467C7.69279 6.61453 8.33252 6.33355 8.99958 6.33355C9.66664 6.33355 10.3064 6.61453 10.7781 7.11467C11.2497 7.61481 11.5147 8.29314 11.5147 9.00044C11.5147 9.70775 11.2497 10.3861 10.7781 10.8862L13.5369 13.8107M7.22278 7.11556L4.46474 4.19111M4.46474 4.19111L1.4552 1M4.46474 4.19111C5.81639 3.26628 7.39136 2.77547 9 2.77778C12.754 2.77778 15.9312 5.39378 17 9C16.4099 10.9826 15.1845 12.6841 13.5361 13.8098L16.5448 17" stroke="#101010" stroke-linecap="round" stroke-linejoin="round"/>
</svg>
