<svg width="80" height="80" viewBox="0 0 80 80" fill="none" xmlns="http://www.w3.org/2000/svg">
<path d="M39.5067 7.49978C22.1036 7.76541 7.87858 21.9029 7.50046 39.3154C7.36804 45.1721 8.82832 50.9549 11.7255 56.0467C11.8393 56.2457 12.0056 56.4096 12.2063 56.5204C12.407 56.6313 12.6343 56.6848 12.8634 56.6751C13.0924 56.6654 13.3144 56.5929 13.505 56.4655C13.6957 56.3382 13.8476 56.1608 13.9442 55.9529C16.2912 50.9681 17.5047 45.5251 17.4973 40.0154C17.4918 36.6406 18.2479 33.3081 19.7094 30.2662C21.1708 27.2243 23.2999 24.5514 25.938 22.4467C26.1967 22.2443 26.4928 22.095 26.8092 22.0071C27.1257 21.9192 27.4564 21.8945 27.7824 21.9344C28.1084 21.9743 28.4234 22.078 28.7093 22.2396C28.9953 22.4012 29.2466 22.6176 29.4489 22.8763C29.6512 23.1351 29.8006 23.4312 29.8885 23.7476C29.9764 24.0641 30.0011 24.3948 29.9612 24.7208C29.9213 25.0468 29.8176 25.3618 29.6559 25.6477C29.4943 25.9337 29.278 26.185 29.0192 26.3873C26.9798 28.0257 25.335 30.1018 24.2066 32.4619C23.0783 34.822 22.4951 37.4057 22.5005 40.0217C22.5087 47.527 20.5187 54.8993 16.7348 61.381C16.5946 61.6192 16.5372 61.8971 16.5717 62.1714C16.6062 62.4456 16.7306 62.7007 16.9255 62.8967C17.5505 63.5217 18.2036 64.1467 18.8786 64.7154C19.0169 64.8316 19.1788 64.9165 19.3531 64.9641C19.5274 65.0117 19.7099 65.021 19.8881 64.9913C20.0663 64.9616 20.236 64.8936 20.3854 64.792C20.5348 64.6905 20.6604 64.5577 20.7536 64.4029C23.5201 59.8101 25.4846 54.78 26.563 49.5279C26.6952 48.8781 27.0801 48.3075 27.633 47.9415C28.1859 47.5755 28.8616 47.4442 29.5114 47.5763C30.1612 47.7085 30.7318 48.0934 31.0978 48.6464C31.4638 49.1993 31.5951 49.875 31.463 50.5248C30.2541 56.451 28.0263 62.1226 24.8786 67.2873C24.7898 67.4341 24.7322 67.5976 24.7094 67.7677C24.6866 67.9378 24.699 68.1107 24.7459 68.2757C24.7928 68.4408 24.8732 68.5944 24.982 68.727C25.0909 68.8597 25.2259 68.9685 25.3786 69.0467C26.1505 69.4373 26.9411 69.7998 27.7442 70.131C28.0215 70.2498 28.3324 70.2644 28.6196 70.1719C28.9068 70.0794 29.1508 69.8862 29.3067 69.6279C34.6755 60.7102 37.5085 50.4964 37.5005 40.0873C37.494 39.4455 37.7298 38.825 38.1608 38.3494C38.5917 37.8738 39.1862 37.5783 39.8255 37.5217C40.1682 37.4976 40.5122 37.5445 40.836 37.6593C41.1598 37.7741 41.4565 37.9544 41.7075 38.189C41.9585 38.4236 42.1584 38.7074 42.2949 39.0227C42.4313 39.338 42.5013 39.6781 42.5005 40.0217C42.5128 50.6495 39.8005 61.1031 34.6223 70.3842C34.5227 70.5619 34.4679 70.7613 34.463 70.9651C34.458 71.1688 34.5029 71.3707 34.5938 71.5531C34.6847 71.7355 34.8188 71.8929 34.9845 72.0116C35.1501 72.1303 35.3423 72.2067 35.5442 72.2342C36.4921 72.3654 37.4515 72.455 38.4223 72.5029C38.6557 72.5116 38.8869 72.4547 39.0896 72.3387C39.2923 72.2227 39.4584 72.0523 39.5692 71.8467C44.7664 62.125 47.4903 51.2734 47.5005 40.2498C47.5161 36.1092 44.2817 32.5967 40.1442 32.5185C39.1488 32.4994 38.1596 32.6787 37.2343 33.0459C36.3089 33.4131 35.4659 33.9608 34.7544 34.6572C34.0429 35.3535 33.4772 36.1846 33.0902 37.1018C32.7032 38.0191 32.5028 39.0042 32.5005 39.9998C32.4959 40.6241 32.2607 41.2247 31.8402 41.6861C31.4197 42.1476 30.8435 42.4374 30.2223 42.4998C29.8759 42.5307 29.5268 42.4889 29.1974 42.3772C28.868 42.2654 28.5655 42.0862 28.3093 41.8509C28.0531 41.6156 27.8489 41.3294 27.7096 41.0107C27.5703 40.6919 27.4991 40.3476 27.5005 39.9998C27.5004 38.3472 27.828 36.7109 28.4644 35.1857C29.1007 33.6605 30.0332 32.2767 31.2079 31.1142C32.3826 29.9518 33.7761 29.0338 35.3078 28.4134C36.8396 27.7929 38.4792 27.4824 40.1317 27.4998C47.0067 27.5717 52.5317 33.4904 52.4973 40.3623C52.4669 50.5552 50.2816 60.6265 46.0848 69.9154C45.9895 70.1294 45.9561 70.3658 45.9886 70.5978C46.0211 70.8298 46.1182 71.048 46.2687 71.2275C46.4192 71.407 46.6171 71.5406 46.8399 71.613C47.0626 71.6855 47.3013 71.6939 47.5286 71.6373C48.6128 71.3802 49.6829 71.0673 50.7348 70.6998C50.8988 70.6416 51.0488 70.5499 51.1752 70.4304C51.3017 70.3109 51.4018 70.1664 51.4692 70.006C52.9245 66.5573 54.1235 63.006 55.0567 59.381C55.1388 59.063 55.2827 58.7642 55.4802 58.5018C55.6778 58.2394 55.9251 58.0184 56.208 57.8516C56.4909 57.6847 56.804 57.5752 57.1292 57.5293C57.4544 57.4835 57.7855 57.5021 58.1036 57.5842C58.4216 57.6662 58.7204 57.8102 58.9828 58.0077C59.2452 58.2052 59.4662 58.4525 59.633 58.7355C59.7999 59.0184 59.9094 59.3314 59.9553 59.6566C60.0012 59.9819 59.9825 60.313 59.9005 60.631C59.6671 61.5415 59.4171 62.4477 59.1505 63.3498C59.072 63.6095 59.0801 63.8877 59.1737 64.1424C59.2673 64.3971 59.4411 64.6144 59.6691 64.7616C59.8971 64.9087 60.1667 64.9777 60.4373 64.9581C60.7079 64.9385 60.9648 64.8314 61.1692 64.6529C66.237 60.3012 69.8408 54.4936 71.4901 48.0206C73.1394 41.5476 72.7541 34.7236 70.3866 28.4774C68.0191 22.2312 63.7845 16.8662 58.2591 13.1126C52.7336 9.35901 46.1858 7.39915 39.5067 7.49978ZM61.8755 50.3373C61.7995 50.9405 61.5062 51.4954 61.0507 51.898C60.5951 52.3006 60.0084 52.5235 59.4005 52.5248C59.296 52.5248 59.1917 52.5185 59.088 52.506C58.7621 52.4655 58.4474 52.3611 58.1619 52.1989C57.8764 52.0367 57.6256 51.8198 57.4239 51.5606C57.2222 51.3015 57.0736 51.0052 56.9864 50.6885C56.8993 50.3719 56.8754 50.0413 56.9161 49.7154C57.3146 46.5016 57.515 43.2663 57.5161 40.0279C57.5095 35.3887 55.6636 30.9413 52.3831 27.6608C49.1027 24.3804 44.6553 22.5345 40.0161 22.5279C39.2848 22.5276 38.5543 22.5725 37.8286 22.6623C37.1701 22.7452 36.5057 22.5631 35.9814 22.1561C35.4572 21.749 35.1161 21.1505 35.0333 20.492C34.9504 19.8335 35.1325 19.1691 35.5395 18.6448C35.9465 18.1206 36.5451 17.7795 37.2036 17.6967C40.3713 17.3026 43.5865 17.5862 46.6364 18.5285C49.6862 19.4709 52.501 21.0505 54.8943 23.1628C57.2876 25.2751 59.2047 27.8718 60.5187 30.7809C61.8326 33.6901 62.5135 36.8452 62.5161 40.0373C62.5153 43.4805 62.3014 46.9205 61.8755 50.3373Z" fill="#CAF23A"/>
</svg>
