<svg width="65" height="65" viewBox="0 0 65 65" fill="none" xmlns="http://www.w3.org/2000/svg">
<rect width="65" height="65" rx="20" fill="#574CB0"/>
<path d="M32.64 9.00272C19.7893 9.19884 9.28532 19.6369 9.00611 32.4931C8.90833 36.8173 9.98662 41.0869 12.1259 44.8462C12.2099 44.9932 12.3328 45.1142 12.481 45.196C12.6292 45.2778 12.797 45.3173 12.9662 45.3102C13.1353 45.3031 13.2992 45.2495 13.44 45.1555C13.5807 45.0614 13.6929 44.9305 13.7643 44.777C15.4973 41.0966 16.3934 37.0779 16.3879 33.0099C16.3839 30.5182 16.9422 28.0577 18.0214 25.8118C19.1005 23.5659 20.6726 21.5924 22.6206 20.0384C22.8117 19.889 23.0303 19.7787 23.264 19.7139C23.4977 19.649 23.7419 19.6307 23.9826 19.6602C24.2233 19.6896 24.4559 19.7662 24.6671 19.8855C24.8782 20.0049 25.0638 20.1646 25.2132 20.3557C25.3625 20.5467 25.4728 20.7653 25.5378 20.999C25.6027 21.2326 25.6209 21.4768 25.5914 21.7175C25.562 21.9582 25.4854 22.1907 25.366 22.4019C25.2467 22.613 25.0869 22.7985 24.8959 22.9479C23.39 24.1575 22.1754 25.6904 21.3422 27.4329C20.509 29.1755 20.0784 31.0831 20.0823 33.0145C20.0884 38.5559 18.6189 43.9991 15.8249 48.7847C15.7213 48.9606 15.679 49.1658 15.7044 49.3682C15.7299 49.5707 15.8218 49.759 15.9657 49.9038C16.4272 50.3652 16.9094 50.8267 17.4079 51.2466C17.51 51.3324 17.6296 51.395 17.7583 51.4302C17.8869 51.4654 18.0217 51.4722 18.1533 51.4503C18.2849 51.4284 18.4102 51.3782 18.5205 51.3032C18.6309 51.2282 18.7236 51.1302 18.7924 51.0159C20.8352 47.6249 22.2859 43.911 23.0821 40.0332C23.1797 39.5535 23.464 39.1322 23.8723 38.8619C24.2806 38.5917 24.7795 38.4947 25.2593 38.5924C25.7391 38.69 26.1605 38.9741 26.4307 39.3824C26.701 39.7906 26.798 40.2895 26.7004 40.7693C25.8077 45.1448 24.1627 49.3323 21.8384 53.1455C21.7728 53.2539 21.7303 53.3746 21.7134 53.5002C21.6966 53.6257 21.7057 53.7534 21.7404 53.8753C21.775 53.9971 21.8344 54.1106 21.9147 54.2085C21.9951 54.3064 22.0948 54.3867 22.2076 54.4445C22.7775 54.7329 23.3613 55.0005 23.9544 55.2451C24.1592 55.3328 24.3887 55.3435 24.6008 55.2753C24.8129 55.207 24.9931 55.0643 25.1082 54.8736C29.0726 48.2895 31.1645 40.7483 31.1585 33.063C31.1538 32.5891 31.3279 32.131 31.6461 31.7798C31.9644 31.4287 32.4033 31.2105 32.8754 31.1687C33.1284 31.1509 33.3824 31.1855 33.6216 31.2703C33.8607 31.3551 34.0797 31.4882 34.2651 31.6614C34.4504 31.8346 34.5981 32.0442 34.6988 32.277C34.7996 32.5098 34.8512 32.7609 34.8506 33.0145C34.8598 40.8614 32.8569 48.5795 29.0333 55.432C28.9597 55.5632 28.9193 55.7105 28.9156 55.8609C28.912 56.0113 28.9451 56.1603 29.0122 56.295C29.0794 56.4297 29.1784 56.5459 29.3007 56.6336C29.423 56.7212 29.5649 56.7776 29.714 56.7979C30.414 56.8948 31.1224 56.9609 31.8393 56.9963C32.0116 57.0027 32.1823 56.9607 32.332 56.8751C32.4816 56.7894 32.6043 56.6636 32.6861 56.5118C36.5238 49.3341 38.5352 41.322 38.5427 33.1829C38.5542 30.1258 36.1659 27.5324 33.1107 27.4748C32.3757 27.4607 31.6453 27.593 30.962 27.8641C30.2787 28.1352 29.6562 28.5396 29.1308 29.0538C28.6055 29.5679 28.1877 30.1815 27.902 30.8587C27.6162 31.536 27.4682 32.2633 27.4665 32.9984C27.4631 33.4593 27.2895 33.9027 26.979 34.2434C26.6684 34.5842 26.243 34.7981 25.7843 34.8442C25.5284 34.867 25.2707 34.8361 25.0274 34.7536C24.7842 34.6711 24.5608 34.5388 24.3717 34.3651C24.1825 34.1913 24.0317 33.9801 23.9288 33.7447C23.826 33.5094 23.7734 33.2552 23.7744 32.9984C23.7743 31.7782 24.0162 30.5701 24.4862 29.444C24.9561 28.3179 25.6446 27.2962 26.512 26.4379C27.3794 25.5796 28.4084 24.9019 29.5395 24.4438C30.6706 23.9857 31.8812 23.7565 33.1015 23.7693C38.1781 23.8223 42.2578 28.1923 42.2325 33.266C42.21 40.7917 40.5963 48.2276 37.4974 55.0859C37.4269 55.2439 37.4023 55.4184 37.4263 55.5897C37.4503 55.761 37.522 55.9221 37.6331 56.0546C37.7443 56.1871 37.8904 56.2858 38.0549 56.3393C38.2194 56.3928 38.3956 56.399 38.5635 56.3572C39.364 56.1674 40.1543 55.9364 40.931 55.665C41.0521 55.6221 41.1628 55.5543 41.2562 55.4661C41.3496 55.3779 41.4235 55.2712 41.4733 55.1528C42.5479 52.6065 43.4333 49.9845 44.1223 47.3081C44.1829 47.0733 44.2892 46.8527 44.4351 46.6589C44.5809 46.4652 44.7635 46.302 44.9725 46.1788C45.1814 46.0556 45.4125 45.9748 45.6527 45.9409C45.8929 45.907 46.1373 45.9208 46.3722 45.9814C46.607 46.042 46.8277 46.1483 47.0214 46.2941C47.2152 46.4399 47.3784 46.6225 47.5016 46.8314C47.6248 47.0403 47.7056 47.2714 47.7395 47.5116C47.7734 47.7517 47.7596 47.9962 47.699 48.231C47.5267 48.9032 47.3421 49.5723 47.1452 50.2383C47.0873 50.4301 47.0933 50.6355 47.1624 50.8235C47.2315 51.0116 47.3599 51.172 47.5282 51.2807C47.6965 51.3893 47.8956 51.4402 48.0955 51.4258C48.2953 51.4113 48.485 51.3322 48.6359 51.2004C52.378 47.9874 55.0391 43.6995 56.257 38.9204C57.4748 34.1412 57.1903 29.1028 55.4422 24.4911C53.694 19.8793 50.5671 15.9182 46.487 13.1468C42.4069 10.3754 37.5719 8.92843 32.64 9.00272ZM49.1574 40.6308C49.1013 41.0762 48.8848 41.4859 48.5484 41.7831C48.212 42.0804 47.7788 42.245 47.3298 42.2459C47.2527 42.2459 47.1756 42.2413 47.0991 42.2321C46.8584 42.2021 46.6261 42.1251 46.4152 42.0053C46.2044 41.8855 46.0192 41.7254 45.8703 41.5341C45.7214 41.3427 45.6116 41.1239 45.5473 40.8902C45.4829 40.6564 45.4653 40.4123 45.4953 40.1717C45.7896 37.7988 45.9376 35.4101 45.9384 33.0191C45.9335 29.5938 44.5705 26.3102 42.1481 23.8882C39.7258 21.4661 36.4418 20.1033 33.0161 20.0984C32.4762 20.0982 31.9367 20.1313 31.4008 20.1976C30.9146 20.2588 30.424 20.1244 30.0369 19.8239C29.6498 19.5233 29.3979 19.0814 29.3367 18.5952C29.2755 18.109 29.41 17.6185 29.7105 17.2314C30.0111 16.8444 30.4531 16.5925 30.9393 16.5314C33.2784 16.2404 35.6526 16.4498 37.9046 17.1456C40.1567 17.8413 42.2352 19.0076 44.0024 20.5672C45.7696 22.1267 47.1853 24.044 48.1555 26.1918C49.1258 28.3397 49.6285 30.6692 49.6304 33.0261C49.6299 35.5683 49.4719 38.1081 49.1574 40.6308Z" fill="#CAF23A"/>
</svg>
