<svg width="80" height="80" viewBox="0 0 80 80" fill="none" xmlns="http://www.w3.org/2000/svg">
<path d="M29.1429 2H7.42857C5.98882 2 4.60805 2.57194 3.58999 3.58999C2.57194 4.60805 2 5.98882 2 7.42857V29.1429C2 30.5826 2.57194 31.9634 3.58999 32.9814C4.60805 33.9995 5.98882 34.5714 7.42857 34.5714H29.1429C30.5826 34.5714 31.9634 33.9995 32.9814 32.9814C33.9995 31.9634 34.5714 30.5826 34.5714 29.1429V7.42857C34.5714 5.98882 33.9995 4.60805 32.9814 3.58999C31.9634 2.57194 30.5826 2 29.1429 2ZM30.9524 29.1429C30.9524 29.6228 30.7617 30.083 30.4224 30.4224C30.083 30.7617 29.6228 30.9524 29.1429 30.9524H7.42857C6.94866 30.9524 6.4884 30.7617 6.14905 30.4224C5.80969 30.083 5.61905 29.6228 5.61905 29.1429V7.42857C5.61905 6.94866 5.80969 6.4884 6.14905 6.14905C6.4884 5.80969 6.94866 5.61905 7.42857 5.61905H29.1429C29.6228 5.61905 30.083 5.80969 30.4224 6.14905C30.7617 6.4884 30.9524 6.94866 30.9524 7.42857V29.1429ZM29.1429 45.4286H7.42857C5.98882 45.4286 4.60805 46.0005 3.58999 47.0186C2.57194 48.0366 2 49.4174 2 50.8571V72.5714C2 74.0112 2.57194 75.392 3.58999 76.41C4.60805 77.4281 5.98882 78 7.42857 78H29.1429C30.5826 78 31.9634 77.4281 32.9814 76.41C33.9995 75.392 34.5714 74.0112 34.5714 72.5714V50.8571C34.5714 49.4174 33.9995 48.0366 32.9814 47.0186C31.9634 46.0005 30.5826 45.4286 29.1429 45.4286ZM30.9524 72.5714C30.9524 73.0513 30.7617 73.5116 30.4224 73.851C30.083 74.1903 29.6228 74.381 29.1429 74.381H7.42857C6.94866 74.381 6.4884 74.1903 6.14905 73.851C5.80969 73.5116 5.61905 73.0513 5.61905 72.5714V50.8571C5.61905 50.3772 5.80969 49.917 6.14905 49.5776C6.4884 49.2383 6.94866 49.0476 7.42857 49.0476H29.1429C29.6228 49.0476 30.083 49.2383 30.4224 49.5776C30.7617 49.917 30.9524 50.3772 30.9524 50.8571V72.5714ZM72.5714 2H50.8571C49.4174 2 48.0366 2.57194 47.0186 3.58999C46.0005 4.60805 45.4286 5.98882 45.4286 7.42857V29.1429C45.4286 30.5826 46.0005 31.9634 47.0186 32.9814C48.0366 33.9995 49.4174 34.5714 50.8571 34.5714H72.5714C74.0112 34.5714 75.392 33.9995 76.41 32.9814C77.4281 31.9634 78 30.5826 78 29.1429V7.42857C78 5.98882 77.4281 4.60805 76.41 3.58999C75.392 2.57194 74.0112 2 72.5714 2ZM74.381 29.1429C74.381 29.6228 74.1903 30.083 73.851 30.4224C73.5116 30.7617 73.0513 30.9524 72.5714 30.9524H50.8571C50.3772 30.9524 49.917 30.7617 49.5776 30.4224C49.2383 30.083 49.0476 29.6228 49.0476 29.1429V7.42857C49.0476 6.94866 49.2383 6.4884 49.5776 6.14905C49.917 5.80969 50.3772 5.61905 50.8571 5.61905H72.5714C73.0513 5.61905 73.5116 5.80969 73.851 6.14905C74.1903 6.4884 74.381 6.94866 74.381 7.42857V29.1429ZM45.4286 61.7143V47.2381C45.4286 46.7582 45.6192 46.2979 45.9586 45.9586C46.2979 45.6192 46.7582 45.4286 47.2381 45.4286C47.718 45.4286 48.1783 45.6192 48.5176 45.9586C48.857 46.2979 49.0476 46.7582 49.0476 47.2381V61.7143C49.0476 62.1942 48.857 62.6545 48.5176 62.9938C48.1783 63.3332 47.718 63.5238 47.2381 63.5238C46.7582 63.5238 46.2979 63.3332 45.9586 62.9938C45.6192 62.6545 45.4286 62.1942 45.4286 61.7143ZM78 54.4762C78 54.9561 77.8094 55.4164 77.47 55.7557C77.1307 56.0951 76.6704 56.2857 76.1905 56.2857H63.5238V76.1905C63.5238 76.6704 63.3332 77.1307 62.9938 77.47C62.6545 77.8094 62.1942 78 61.7143 78H47.2381C46.7582 78 46.2979 77.8094 45.9586 77.47C45.6192 77.1307 45.4286 76.6704 45.4286 76.1905C45.4286 75.7106 45.6192 75.2503 45.9586 74.9109C46.2979 74.5716 46.7582 74.381 47.2381 74.381H59.9048V47.2381C59.9048 46.7582 60.0954 46.2979 60.4348 45.9586C60.7741 45.6192 61.2344 45.4286 61.7143 45.4286C62.1942 45.4286 62.6545 45.6192 62.9938 45.9586C63.3332 46.2979 63.5238 46.7582 63.5238 47.2381V52.6667H76.1905C76.6704 52.6667 77.1307 52.8573 77.47 53.1967C77.8094 53.536 78 53.9963 78 54.4762ZM78 68.9524V76.1905C78 76.6704 77.8094 77.1307 77.47 77.47C77.1307 77.8094 76.6704 78 76.1905 78C75.7106 78 75.2503 77.8094 74.9109 77.47C74.5716 77.1307 74.381 76.6704 74.381 76.1905V68.9524C74.381 68.4725 74.5716 68.0122 74.9109 67.6729C75.2503 67.3335 75.7106 67.1429 76.1905 67.1429C76.6704 67.1429 77.1307 67.3335 77.47 67.6729C77.8094 68.0122 78 68.4725 78 68.9524Z" fill="#CAF23A"/>
</svg>
