<svg width="25" height="24" viewBox="0 0 25 24" fill="none" xmlns="http://www.w3.org/2000/svg">
<path d="M1.6665 18.5V5H8.00964C10.7281 5 11.6343 9.5 8.9158 11C12.9935 12.5 12.0874 18.5 8.00964 18.5H1.6665Z" stroke="#101010" stroke-width="0.8" stroke-linejoin="round"/>
<path d="M4.20361 9.5V7H6.9221C8.28134 7 8.28134 9.5 6.9221 9.5H4.20361Z" stroke="#101010" stroke-width="0.8" stroke-linejoin="round"/>
<path d="M4.20361 16V13H7.37518C9.1875 13 9.1875 16 7.37518 16H4.20361Z" stroke="#101010" stroke-width="0.8" stroke-linejoin="round"/>
<path d="M19.29 7.5H15.3062C15.03 7.5 14.8062 7.27614 14.8062 7C14.8062 6.72386 15.03 6.5 15.3062 6.5H19.29C19.5662 6.5 19.79 6.72386 19.79 7C19.79 7.27614 19.5662 7.5 19.29 7.5Z" stroke="#101010" stroke-width="0.6" stroke-linejoin="round"/>
<path d="M15.2593 12.7493L19.7901 12.75C19.7901 9.75129 15.2593 9.74919 15.2593 12.7493Z" stroke="#101010" stroke-width="0.8" stroke-linejoin="round"/>
<path d="M20.754 14.5H15.2595C15.2595 17.5675 18.2606 17.5625 19.4653 16.5046C19.759 16.2466 20.1049 16 20.4959 16H20.6449C21.2056 16 21.6433 16.4718 21.4159 16.9843C21.0277 17.859 20.0393 19 17.5245 19C15.2591 19 13.167 17.2652 13.167 14.5C13.167 11.7348 14.3534 9 17.525 9C21.2743 9 21.6902 12.1127 21.6662 13.6548C21.6586 14.1443 21.2435 14.5 20.754 14.5Z" stroke="#101010" stroke-width="0.8" stroke-linejoin="round"/>
</svg>
