<svg width="25" height="24" viewBox="0 0 25 24" fill="none" xmlns="http://www.w3.org/2000/svg">
<path fill-rule="evenodd" clip-rule="evenodd" d="M12.3335 4.72694C8.29683 4.72694 5.02883 8.11958 5.02883 12.2976C5.02883 15.3654 6.79083 18.0053 9.32683 19.1928C9.59216 19.3173 9.8515 19.2679 10.0542 19.1093C10.1662 19.0182 10.2566 18.9013 10.3181 18.7677C10.3797 18.6341 10.4107 18.4875 10.4088 18.3392V17.9427L9.50416 17.8147C9.49746 17.8138 9.49079 17.8126 9.48416 17.8112C8.9855 17.7097 8.64883 17.5267 8.40216 17.2631C8.19483 17.0412 8.06816 16.7754 7.96083 16.5501L7.9235 16.4714C7.82429 16.2555 7.71596 16.0443 7.59883 15.8384C7.50883 15.6895 7.43883 15.613 7.3695 15.565C7.1935 15.4433 7.02416 15.2367 7.02416 14.9786C7.02356 14.9043 7.0388 14.8308 7.06878 14.7635C7.09876 14.6961 7.14273 14.6365 7.1975 14.589C7.30087 14.5036 7.42969 14.4588 7.5615 14.4624C7.7095 14.4624 7.84883 14.5097 7.96483 14.564C8.0835 14.6196 8.2015 14.6934 8.3115 14.7699C8.5795 14.9563 8.8435 15.1769 9.06683 15.4489C9.2995 15.7313 9.46416 15.9108 9.71216 15.9476C9.91616 15.9782 10.1242 15.9789 10.2862 15.9713C10.3087 15.8374 10.3458 15.7067 10.3968 15.5817C10.199 15.5335 10.0038 15.4741 9.81216 15.4036C9.37616 15.2422 8.89016 14.9911 8.5635 14.6106C8.20483 14.1918 7.98283 13.8183 7.85883 13.3814C7.73816 12.9557 7.71816 12.4945 7.71816 11.9268C7.71816 11.0573 8.07883 10.3248 8.3495 9.9359C8.24551 9.59545 8.17077 9.24602 8.12616 8.89174C8.09662 8.66833 8.09685 8.44172 8.12683 8.21836C8.16016 8.01454 8.2435 7.76411 8.46283 7.61316C8.67416 7.46638 8.92216 7.47264 9.1155 7.5102C9.31616 7.54985 9.52483 7.63681 9.71683 7.73629C10.0295 7.89767 10.3402 8.11332 10.5728 8.29628C10.9742 8.17315 11.6842 8.01454 12.3262 7.99993H12.3408C12.9835 8.01454 13.6615 8.17315 14.0528 8.29558C14.2862 8.11332 14.5962 7.89698 14.9082 7.73629C15.1002 7.63681 15.3082 7.54985 15.5095 7.5102C15.7028 7.47264 15.9508 7.46638 16.1628 7.61246C16.3815 7.76411 16.4655 8.01454 16.4982 8.21836C16.5322 8.43054 16.5242 8.66775 16.4982 8.89174C16.4538 9.246 16.3792 9.59543 16.2755 9.9359C16.5462 10.3255 16.9068 11.058 16.9068 11.9268C16.9068 12.4945 16.8868 12.9557 16.7668 13.3807C16.6422 13.819 16.4202 14.1918 16.0615 14.6106C15.7348 14.9911 15.2488 15.2422 14.8128 15.4036C14.5814 15.4885 14.3449 15.5575 14.1048 15.6102C14.1868 15.869 14.2162 16.0784 14.2162 16.1988V18.3483C14.2162 18.6752 14.3622 18.9542 14.5695 19.117C14.7708 19.2763 15.0295 19.3257 15.2948 19.2046C17.8548 18.0276 19.6375 15.3807 19.6375 12.2969C19.6375 8.11958 16.3708 4.72694 12.3335 4.72694ZM10.6508 16.6676H10.6482L10.6428 16.669L10.6235 16.6718C10.5245 16.6839 10.4251 16.6925 10.3255 16.6975C10.0882 16.7104 9.85033 16.7004 9.61483 16.6676C9.0875 16.5897 8.76683 16.2001 8.5595 15.9469L8.5395 15.9233C8.47171 15.8412 8.39889 15.7638 8.3215 15.6916C8.39016 15.8238 8.4615 15.9713 8.53816 16.1299L8.54483 16.1438L8.57883 16.2161C8.6955 16.4582 8.77216 16.6196 8.8995 16.7546C9.0235 16.8867 9.21683 17.0147 9.6075 17.0954L10.8035 17.2645C10.887 17.2763 10.9636 17.3193 11.019 17.3856C11.0745 17.4518 11.1049 17.5369 11.1048 17.6248V18.3392C11.1048 18.8958 10.8548 19.3917 10.4715 19.6923C10.2702 19.8527 10.0308 19.9528 9.77905 19.9818C9.52729 20.0107 9.27273 19.9674 9.04283 19.8564C6.26816 18.5577 4.3335 15.6659 4.3335 12.2976C4.3335 7.71194 7.91816 4 12.3335 4C16.7488 4 20.3335 7.71194 20.3335 12.2976C20.3335 15.6833 18.3742 18.5827 15.5755 19.8703C15.3454 19.9792 15.0913 20.0206 14.8404 19.9904C14.5894 19.9601 14.3511 19.8592 14.1508 19.6985C13.9528 19.5395 13.7929 19.3347 13.6834 19.1003C13.574 18.866 13.5181 18.6083 13.5202 18.3476V16.1981C13.5202 16.1494 13.4875 15.8683 13.3055 15.4906C13.2804 15.4382 13.2677 15.3803 13.2686 15.3217C13.2695 15.2632 13.2839 15.2057 13.3106 15.1542C13.3372 15.1026 13.3754 15.0586 13.4219 15.0257C13.4684 14.9928 13.5217 14.9722 13.5775 14.9654C13.9193 14.9207 14.2554 14.8377 14.5802 14.7177C14.9762 14.5717 15.3315 14.3713 15.5428 14.125C15.8568 13.7591 16.0135 13.4781 16.0995 13.1741C16.1888 12.859 16.2115 12.4924 16.2115 11.9268C16.2115 11.1331 15.8115 10.466 15.6275 10.251C15.5857 10.2024 15.5573 10.143 15.5451 10.079C15.5329 10.015 15.5374 9.94876 15.5582 9.88721C15.6767 9.53672 15.7604 9.17449 15.8082 8.80618C15.8295 8.61488 15.8308 8.45488 15.8122 8.33941C15.808 8.29719 15.7957 8.25627 15.7762 8.21906C15.7303 8.21077 15.6832 8.21291 15.6382 8.22532C15.5248 8.24758 15.3802 8.30323 15.2162 8.3881C14.8895 8.55645 14.5495 8.80549 14.3388 8.98357C14.2924 9.0229 14.237 9.04902 14.178 9.05938C14.119 9.06974 14.0584 9.06399 14.0022 9.0427C13.4624 8.85846 12.9009 8.75242 12.3335 8.72757C11.6622 8.74427 10.8875 8.94322 10.6228 9.0427C10.5666 9.06399 10.506 9.06974 10.447 9.05938C10.388 9.04902 10.3326 9.0229 10.2862 8.98357C10.0137 8.7547 9.71978 8.5552 9.40883 8.3881C9.27531 8.31494 9.13322 8.26022 8.98616 8.22532C8.94134 8.21301 8.89451 8.21087 8.84883 8.21906C8.82923 8.25626 8.81699 8.29718 8.81283 8.33941C8.79416 8.45488 8.7955 8.61488 8.81683 8.80618C8.86487 9.17443 8.94864 9.53663 9.06683 9.88721C9.10883 10.0124 9.08283 10.1516 8.9975 10.251C8.8135 10.466 8.4135 11.1331 8.4135 11.9268C8.4135 12.4917 8.43616 12.859 8.5255 13.1741C8.61216 13.4781 8.76816 13.7584 9.0815 14.125C9.2935 14.3713 9.64816 14.5717 10.0448 14.7177C10.3693 14.8376 10.7053 14.9206 11.0468 14.9654C11.1171 14.9733 11.1834 15.0033 11.2369 15.0514C11.2905 15.0996 11.3287 15.1636 11.3465 15.235C11.3643 15.3063 11.3608 15.3817 11.3366 15.4509C11.3124 15.5202 11.2685 15.5801 11.2108 15.6228C11.1008 15.7048 11.0282 15.8523 10.9875 16.0228C10.9665 16.1105 10.954 16.2002 10.9502 16.2906V16.3038C10.951 16.392 10.9211 16.4775 10.8661 16.5444C10.811 16.6114 10.7345 16.6551 10.6508 16.6676Z" fill="#101010"/>
</svg>
