<svg width="25" height="24" viewBox="0 0 25 24" fill="none" xmlns="http://www.w3.org/2000/svg">
<path d="M19.9458 4C20.4388 4 20.8108 4.51552 20.6118 5.47439L18.1985 19.0326C18.0298 19.9966 17.5411 20.2286 16.8664 19.7801L11.1098 14.7125C11.0874 14.6934 11.0693 14.6683 11.0567 14.6392C11.0442 14.61 11.0376 14.5777 11.0376 14.545C11.0376 14.5122 11.0442 14.48 11.0567 14.4508C11.0693 14.4217 11.0874 14.3965 11.1098 14.3774L17.7573 7.22201C18.0601 6.90239 17.6925 6.74773 17.2946 7.03642L8.95158 13.3103C8.92628 13.33 8.89755 13.3425 8.86758 13.347C8.8376 13.3515 8.80717 13.3477 8.77858 13.3361L5.23639 12.0009C4.44924 11.7277 4.44924 11.0833 5.41372 10.6244L19.5868 4.10826C19.6992 4.04398 19.8213 4.00718 19.9458 4Z" stroke="#101010" stroke-linecap="round" stroke-linejoin="round"/>
</svg>
