<svg width="24" height="24" viewBox="0 0 18 18" fill="none" xmlns="http://www.w3.org/2000/svg">
<path d="M16.2793 1C16.7723 1 17.1443 1.51552 16.9453 2.47439L14.532 16.0326C14.3633 16.9966 13.8746 17.2286 13.1999 16.7801L7.44327 11.7125C7.42094 11.6934 7.40275 11.6683 7.39021 11.6392C7.37766 11.61 7.37112 11.5777 7.37112 11.545C7.37112 11.5122 7.37766 11.48 7.39021 11.4508C7.40275 11.4217 7.42094 11.3965 7.44327 11.3774L14.0908 4.22201C14.3936 3.90239 14.0259 3.74773 13.628 4.03642L5.28508 10.3103C5.25978 10.33 5.23105 10.3425 5.20107 10.347C5.1711 10.3515 5.14066 10.3477 5.11208 10.3361L1.56989 9.00089C0.782732 8.72767 0.782732 8.08326 1.74721 7.62445L15.9203 1.10826C16.0327 1.04398 16.1548 1.00718 16.2793 1Z" stroke="white" stroke-linecap="round" stroke-linejoin="round"/>
</svg>
