<svg width="28" height="28" viewBox="0 0 28 28" fill="none" xmlns="http://www.w3.org/2000/svg">
<rect width="28" height="28" rx="6.08696" fill="white"/>
<g clip-path="url(#clip0_297_2830)">
<path d="M14.0001 26.173C20.7236 26.173 26.174 20.7226 26.174 13.9991C26.174 7.27564 20.7236 1.8252 14.0001 1.8252C7.27662 1.8252 1.82617 7.27564 1.82617 13.9991C1.82617 20.7226 7.27662 26.173 14.0001 26.173Z" fill="url(#paint0_linear_297_2830)"/>
<path d="M11.7687 19.5801C11.3743 19.5801 11.4413 19.4311 11.3053 19.0556L10.1455 15.2387L19.073 9.94238" fill="#D7DBE0"/>
<path d="M11.7695 19.5812C12.0739 19.5812 12.2083 19.442 12.3782 19.2768L14.0014 17.6985L11.9767 16.4775" fill="#B4BCC2"/>
<path d="M11.9763 16.4771L16.8823 20.1018C17.4422 20.4107 17.8462 20.2507 17.9857 19.5821L19.9827 10.1713C20.1872 9.3516 19.6703 8.97969 19.1346 9.22287L7.4081 13.7446C6.60767 14.0656 6.61244 14.5122 7.26222 14.7112L10.2715 15.6505L17.2383 11.2552C17.5672 11.0557 17.8691 11.1629 17.6214 11.3828" fill="white"/>
</g>
<defs>
<linearGradient id="paint0_linear_297_2830" x1="14.0001" y1="1.8252" x2="14.0001" y2="25.9924" gradientUnits="userSpaceOnUse">
<stop stop-color="#475361"/>
<stop offset="1" stop-color="#1D1D1D"/>
</linearGradient>
<clipPath id="clip0_297_2830">
<rect width="24.3478" height="24.3478" fill="white" transform="translate(1.82617 1.82617)"/>
</clipPath>
</defs>
</svg>
