<svg width="18" height="14" viewBox="0 0 18 14" fill="none" xmlns="http://www.w3.org/2000/svg">
<path d="M11.3996 7.00112C11.3996 7.6831 11.1468 8.33715 10.6967 8.81939C10.2466 9.30163 9.63613 9.57254 8.99961 9.57254C8.36309 9.57254 7.75264 9.30163 7.30255 8.81939C6.85247 8.33715 6.59961 7.6831 6.59961 7.00112C6.59961 6.31913 6.85247 5.66508 7.30255 5.18284C7.75264 4.7006 8.36309 4.42969 8.99961 4.42969C9.63613 4.42969 10.2466 4.7006 10.6967 5.18284C11.1468 5.66508 11.3996 6.31913 11.3996 7.00112Z" stroke="#101010" stroke-linecap="round" stroke-linejoin="round"/>
<path d="M1 7C2.28 3.48829 5.2688 1 9 1C12.7312 1 15.72 3.48829 17 7C15.72 10.5117 12.7312 13 9 13C5.2688 13 2.28 10.5117 1 7Z" stroke="#101010" stroke-linecap="round" stroke-linejoin="round"/>
</svg>
